<mxfile host="app.diagrams.net" agent="Mozilla/5.0 (Windows NT 10.0; Win64; x64) AppleWebKit/537.36 (KHTML, like Gecko) Chrome/137.0.0.0 Safari/537.36 Edg/137.0.0.0" version="27.1.4" pages="2">
  <diagram name="MappingConsumer UML" id="Q0GeMZDY0J1vkDLg5bPo">
    <mxGraphModel dx="1206" dy="774" grid="1" gridSize="10" guides="1" tooltips="1" connect="1" arrows="1" fold="1" page="1" pageScale="1" pageWidth="850" pageHeight="1100" math="0" shadow="0">
      <root>
        <mxCell id="0" />
        <mxCell id="1" parent="0" />
        <mxCell id="wUbDRQB786QRwwUyjQuT-29" value="MappingConsumer" style="swimlane;fontStyle=0;childLayout=stackLayout;horizontal=1;startSize=30;horizontalStack=0;resizeParent=1;resizeParentMax=0;resizeLast=0;collapsible=1;marginBottom=0;whiteSpace=wrap;html=1;" vertex="1" parent="1">
          <mxGeometry x="60" y="150" width="260" height="260" as="geometry" />
        </mxCell>
        <mxCell id="wUbDRQB786QRwwUyjQuT-30" value="consumer: KafkaConsumer&lt;br&gt;db_lock: Lock&lt;br&gt;MAPPING_TOPIC: str" style="text;strokeColor=none;fillColor=none;align=left;verticalAlign=middle;spacingLeft=4;spacingRight=4;overflow=hidden;points=[[0,0.5],[1,0.5]];portConstraint=eastwest;rotatable=0;whiteSpace=wrap;html=1;" vertex="1" parent="wUbDRQB786QRwwUyjQuT-29">
          <mxGeometry y="30" width="260" height="80" as="geometry" />
        </mxCell>
        <mxCell id="wUbDRQB786QRwwUyjQuT-31" value="+ __new__()&lt;br/&gt;+ __init__()&lt;br/&gt;+ run()&lt;br/&gt;+ execute(msg)&lt;br/&gt;+ stop()" style="text;strokeColor=none;fillColor=none;align=left;verticalAlign=middle;spacingLeft=4;spacingRight=4;overflow=hidden;points=[[0,0.5],[1,0.5]];portConstraint=eastwest;rotatable=0;whiteSpace=wrap;html=1;" vertex="1" parent="wUbDRQB786QRwwUyjQuT-29">
          <mxGeometry y="110" width="260" height="150" as="geometry" />
        </mxCell>
        <mxCell id="wUbDRQB786QRwwUyjQuT-32" value="MappingChain" style="swimlane;fontStyle=0;childLayout=stackLayout;horizontal=1;startSize=30;horizontalStack=0;resizeParent=1;resizeParentMax=0;resizeLast=0;collapsible=1;marginBottom=0;whiteSpace=wrap;html=1;" vertex="1" parent="1">
          <mxGeometry x="500" y="50" width="180" height="110" as="geometry" />
        </mxCell>
        <mxCell id="wUbDRQB786QRwwUyjQuT-33" value="+ _fetch_ids()&lt;br/&gt;+ main_chain_creation(p1_id)" style="text;html=1;" vertex="1" parent="wUbDRQB786QRwwUyjQuT-32">
          <mxGeometry y="30" width="180" height="80" as="geometry" />
        </mxCell>
        <mxCell id="wUbDRQB786QRwwUyjQuT-34" value="PostgresServer" style="swimlane;fontStyle=0;childLayout=stackLayout;horizontal=1;startSize=30;horizontalStack=0;resizeParent=1;resizeParentMax=0;resizeLast=0;collapsible=1;marginBottom=0;whiteSpace=wrap;html=1;" vertex="1" parent="1">
          <mxGeometry x="510" y="380" width="210" height="90" as="geometry" />
        </mxCell>
        <mxCell id="wUbDRQB786QRwwUyjQuT-35" value="+ get_connection_and_cursor()&lt;br/&gt;+ safe_close_cursor()&lt;br/&gt;+ return_connection()" style="text;html=1;" vertex="1" parent="wUbDRQB786QRwwUyjQuT-34">
          <mxGeometry y="30" width="210" height="60" as="geometry" />
        </mxCell>
        <mxCell id="wUbDRQB786QRwwUyjQuT-36" value="db_lock: Lock" style="shape=cds;whiteSpace=wrap;html=1;" vertex="1" parent="1">
          <mxGeometry x="150" y="490" width="100" height="40" as="geometry" />
        </mxCell>
        <mxCell id="wUbDRQB786QRwwUyjQuT-37" style="edgeStyle=orthogonalEdgeStyle;rounded=0;html=1;" edge="1" parent="1" source="wUbDRQB786QRwwUyjQuT-29" target="wUbDRQB786QRwwUyjQuT-32">
          <mxGeometry relative="1" as="geometry" />
        </mxCell>
        <mxCell id="wUbDRQB786QRwwUyjQuT-38" style="edgeStyle=orthogonalEdgeStyle;rounded=0;html=1;" edge="1" parent="1" source="wUbDRQB786QRwwUyjQuT-29" target="wUbDRQB786QRwwUyjQuT-34">
          <mxGeometry relative="1" as="geometry" />
        </mxCell>
      </root>
    </mxGraphModel>
  </diagram>
  <diagram id="N4UUyNJkch8E6NFKWgJJ" name="Page-2">
    <mxGraphModel dx="492" dy="1416" grid="1" gridSize="10" guides="1" tooltips="1" connect="1" arrows="1" fold="1" page="1" pageScale="1" pageWidth="850" pageHeight="1100" math="0" shadow="0">
      <root>
        <mxCell id="0" />
        <mxCell id="1" parent="0" />
        <mxCell id="rNh395utH_tiI8CZSBo7-1" value="Start: P1-P2 Mapping Started" style="shape=ellipse;whiteSpace=wrap;html=1;" vertex="1" parent="1">
          <mxGeometry x="20" y="-430" width="180" height="60" as="geometry" />
        </mxCell>
        <mxCell id="rNh395utH_tiI8CZSBo7-2" value="Extract fabric_id from message&lt;div&gt;Update DB status to RUNNING&lt;/div&gt;" style="shape=process;whiteSpace=wrap;html=1;" vertex="1" parent="1">
          <mxGeometry x="85" y="-310" width="180" height="60" as="geometry" />
        </mxCell>
        <mxCell id="rNh395utH_tiI8CZSBo7-4" value="Init MappingChain(fabric_id) class" style="shape=process;whiteSpace=wrap;html=1;" vertex="1" parent="1">
          <mxGeometry x="85" y="-220" width="180" height="60" as="geometry" />
        </mxCell>
        <mxCell id="rNh395utH_tiI8CZSBo7-27" style="edgeStyle=orthogonalEdgeStyle;rounded=0;orthogonalLoop=1;jettySize=auto;html=1;exitX=1;exitY=0.5;exitDx=0;exitDy=0;entryX=0;entryY=0.5;entryDx=0;entryDy=0;" edge="1" parent="1" source="rNh395utH_tiI8CZSBo7-5" target="rNh395utH_tiI8CZSBo7-26">
          <mxGeometry relative="1" as="geometry" />
        </mxCell>
        <mxCell id="rNh395utH_tiI8CZSBo7-5" value="fetch p1 p2 ids based on fabric id&amp;nbsp;" style="shape=process;whiteSpace=wrap;html=1;" vertex="1" parent="1">
          <mxGeometry x="85" y="-70" width="180" height="60" as="geometry" />
        </mxCell>
        <mxCell id="rNh395utH_tiI8CZSBo7-6" value="P1 documents found?" style="shape=rhombus;whiteSpace=wrap;html=1;" vertex="1" parent="1">
          <mxGeometry x="85" y="10" width="180" height="60" as="geometry" />
        </mxCell>
        <mxCell id="rNh395utH_tiI8CZSBo7-7" value="Log and Exit" style="shape=terminator;whiteSpace=wrap;html=1;" vertex="1" parent="1">
          <mxGeometry x="305" y="10" width="120" height="60" as="geometry" />
        </mxCell>
        <mxCell id="rNh395utH_tiI8CZSBo7-8" value="ThreadPoolExecutor: _process_single_mapping(p1_id)" style="shape=process;whiteSpace=wrap;html=1;" vertex="1" parent="1">
          <mxGeometry x="85" y="90" width="220" height="80" as="geometry" />
        </mxCell>
        <mxCell id="rNh395utH_tiI8CZSBo7-9" value="Categorize: valid, failed, invalid" style="shape=process;whiteSpace=wrap;html=1;" vertex="1" parent="1">
          <mxGeometry x="85" y="190" width="220" height="60" as="geometry" />
        </mxCell>
        <mxCell id="rNh395utH_tiI8CZSBo7-10" value="IF valid â†’ _batch_insert_mappings()" style="shape=process;whiteSpace=wrap;html=1;" vertex="1" parent="1">
          <mxGeometry x="85" y="270" width="220" height="60" as="geometry" />
        </mxCell>
        <mxCell id="rNh395utH_tiI8CZSBo7-11" value="Update status to COMPLETED" style="shape=process;whiteSpace=wrap;html=1;" vertex="1" parent="1">
          <mxGeometry x="85" y="350" width="220" height="60" as="geometry" />
        </mxCell>
        <mxCell id="rNh395utH_tiI8CZSBo7-12" value="Print Summary" style="shape=process;whiteSpace=wrap;html=1;" vertex="1" parent="1">
          <mxGeometry x="85" y="430" width="220" height="60" as="geometry" />
        </mxCell>
        <mxCell id="rNh395utH_tiI8CZSBo7-13" value="End" style="shape=ellipse;whiteSpace=wrap;html=1;" vertex="1" parent="1">
          <mxGeometry x="85" y="510" width="180" height="60" as="geometry" />
        </mxCell>
        <mxCell id="rNh395utH_tiI8CZSBo7-14" style="edgeStyle=orthogonalEdgeStyle;html=1;endArrow=block;" edge="1" parent="1" source="rNh395utH_tiI8CZSBo7-1" target="rNh395utH_tiI8CZSBo7-2">
          <mxGeometry relative="1" as="geometry" />
        </mxCell>
        <mxCell id="rNh395utH_tiI8CZSBo7-15" style="edgeStyle=orthogonalEdgeStyle;html=1;endArrow=block;entryX=0.5;entryY=0;entryDx=0;entryDy=0;" edge="1" parent="1" source="rNh395utH_tiI8CZSBo7-2" target="rNh395utH_tiI8CZSBo7-4">
          <mxGeometry relative="1" as="geometry">
            <mxPoint x="175" y="-230" as="targetPoint" />
            <Array as="points">
              <mxPoint x="175" y="-240" />
              <mxPoint x="176" y="-240" />
            </Array>
          </mxGeometry>
        </mxCell>
        <mxCell id="rNh395utH_tiI8CZSBo7-17" style="edgeStyle=orthogonalEdgeStyle;html=1;endArrow=block;" edge="1" parent="1" source="rNh395utH_tiI8CZSBo7-4" target="rNh395utH_tiI8CZSBo7-5">
          <mxGeometry relative="1" as="geometry" />
        </mxCell>
        <mxCell id="rNh395utH_tiI8CZSBo7-18" style="edgeStyle=orthogonalEdgeStyle;html=1;endArrow=block;" edge="1" parent="1" source="rNh395utH_tiI8CZSBo7-5" target="rNh395utH_tiI8CZSBo7-6">
          <mxGeometry relative="1" as="geometry" />
        </mxCell>
        <mxCell id="rNh395utH_tiI8CZSBo7-19" style="edgeStyle=orthogonalEdgeStyle;html=1;endArrow=block;" edge="1" parent="1" source="rNh395utH_tiI8CZSBo7-6" target="rNh395utH_tiI8CZSBo7-8">
          <mxGeometry relative="1" as="geometry" />
        </mxCell>
        <mxCell id="rNh395utH_tiI8CZSBo7-20" style="edgeStyle=orthogonalEdgeStyle;html=1;endArrow=block;" edge="1" parent="1" source="rNh395utH_tiI8CZSBo7-6" target="rNh395utH_tiI8CZSBo7-7">
          <mxGeometry relative="1" as="geometry">
            <mxPoint x="245" y="40" as="targetPoint" />
          </mxGeometry>
        </mxCell>
        <mxCell id="rNh395utH_tiI8CZSBo7-21" style="edgeStyle=orthogonalEdgeStyle;html=1;endArrow=block;" edge="1" parent="1" source="rNh395utH_tiI8CZSBo7-8" target="rNh395utH_tiI8CZSBo7-9">
          <mxGeometry relative="1" as="geometry" />
        </mxCell>
        <mxCell id="rNh395utH_tiI8CZSBo7-22" style="edgeStyle=orthogonalEdgeStyle;html=1;endArrow=block;" edge="1" parent="1" source="rNh395utH_tiI8CZSBo7-9" target="rNh395utH_tiI8CZSBo7-10">
          <mxGeometry relative="1" as="geometry" />
        </mxCell>
        <mxCell id="rNh395utH_tiI8CZSBo7-23" style="edgeStyle=orthogonalEdgeStyle;html=1;endArrow=block;" edge="1" parent="1" source="rNh395utH_tiI8CZSBo7-10" target="rNh395utH_tiI8CZSBo7-11">
          <mxGeometry relative="1" as="geometry" />
        </mxCell>
        <mxCell id="rNh395utH_tiI8CZSBo7-24" style="edgeStyle=orthogonalEdgeStyle;html=1;endArrow=block;" edge="1" parent="1" source="rNh395utH_tiI8CZSBo7-11" target="rNh395utH_tiI8CZSBo7-12">
          <mxGeometry relative="1" as="geometry" />
        </mxCell>
        <mxCell id="rNh395utH_tiI8CZSBo7-25" style="edgeStyle=orthogonalEdgeStyle;html=1;endArrow=block;" edge="1" parent="1" source="rNh395utH_tiI8CZSBo7-12" target="rNh395utH_tiI8CZSBo7-13">
          <mxGeometry relative="1" as="geometry" />
        </mxCell>
        <mxCell id="rNh395utH_tiI8CZSBo7-26" value="Initial filtering" style="rounded=1;whiteSpace=wrap;html=1;" vertex="1" parent="1">
          <mxGeometry x="320" y="-70" width="100" height="60" as="geometry" />
        </mxCell>
      </root>
    </mxGraphModel>
  </diagram>
</mxfile>
